# xmcd
#
# Track frame offsets: 
#        150
#        13060
#        25687
#        38352
#        51392
#        64002
#        74595
#        86640
#        97912
#        107377
#        120252
#        132055
#
# Disc length: 1952 seconds
#
# Revision: 1
# Processed by: cddbd v1.5PL3 Copyright (c) Steve Scherf et al.
# Submitted via: ExactAudioCopy v0.90b4
#
DISCID=8d079e0c
DTITLE=Mel Tillis - 36 All-Time Greatest Hits - Disc 1
DYEAR=1900
DGENRE=Country
TTITLE0=Brand New Mister Me
TTITLE1=Don't Let Go
TTITLE2=Woman In The Back Of My Mind
TTITLE3=Memory Maker
TTITLE4=Midnight, Me And The Blues
TTITLE5=Neon Rose
TTITLE6=Sawmill
TTITLE7=Stomp Them Grapes
TTITLE8=Take My Hand (With Sherry Bryce)
TTITLE9=Thank You For Being You
TTITLE10=The Arms Of A Fool
TTITLE11=You Are The One
EXTD=
EXTT0=
EXTT1=
EXTT2=
EXTT3=
EXTT4=
EXTT5=
EXTT6=
EXTT7=
EXTT8=
EXTT9=
EXTT10=
EXTT11=
PLAYORDER=
